<?xml version="1.0" encoding="UTF-8"?>
<!DOCTYPE svg PUBLIC "-//W3C//DTD SVG 1.1//EN" "http://www.w3.org/Graphics/SVG/1.1/DTD/svg11.dtd">
<!-- Creator: CorelDRAW 2019 -->
<svg xmlns="http://www.w3.org/2000/svg" xml:space="preserve" width="6.66666in" height="3.33333in" version="1.1" style="shape-rendering:geometricPrecision; text-rendering:geometricPrecision; image-rendering:optimizeQuality; fill-rule:evenodd; clip-rule:evenodd"
viewBox="0 0 6666.66 3333.33"
 xmlns:xlink="http://www.w3.org/1999/xlink"
 xmlns:xodm="http://www.corel.com/coreldraw/odm/2003">
 <defs>
  <style type="text/css">
   <![CDATA[
    .str5 {stroke:#AB3900;stroke-width:13.89;stroke-miterlimit:22.9256}
    .str0 {stroke:black;stroke-width:7.87;stroke-miterlimit:22.9256}
    .str1 {stroke:#1A1A1A;stroke-width:7.87;stroke-miterlimit:22.9256}
    .str2 {stroke:#4D4D4D;stroke-width:7.87;stroke-miterlimit:22.9256}
    .str3 {stroke:gray;stroke-width:7.87;stroke-miterlimit:22.9256}
    .str4 {stroke:#B3B3B3;stroke-width:7.87;stroke-miterlimit:22.9256}
    .fil29 {fill:none}
    .fil2 {fill:#003D73}
    .fil12 {fill:#004078}
    .fil3 {fill:#004582}
    .fil13 {fill:#004887}
    .fil14 {fill:#004F92}
    .fil5 {fill:#006AC7}
    .fil7 {fill:#0079E3}
    .fil16 {fill:#1A1A1A}
    .fil25 {fill:#333333}
    .fil26 {fill:#4D4D4D}
    .fil27 {fill:#666666}
    .fil17 {fill:#6699FF}
    .fil8 {fill:#712A05}
    .fil23 {fill:gray}
    .fil34 {fill:#913607}
    .fil11 {fill:#917807}
    .fil31 {fill:#9900CC}
    .fil32 {fill:#996633}
    .fil22 {fill:#999999}
    .fil20 {fill:#B3B3B3}
    .fil9 {fill:#C24A0E}
    .fil21 {fill:#CC3300}
    .fil30 {fill:#CC66FF}
    .fil24 {fill:#CCCCCC}
    .fil28 {fill:#CCCCFF}
    .fil0 {fill:#DEB916}
    .fil19 {fill:#E6E6E6}
    .fil33 {fill:fuchsia}
    .fil18 {fill:white}
    .fil6 {fill:#003D73;fill-rule:nonzero}
    .fil15 {fill:#913607;fill-rule:nonzero}
    .fil35 {fill:#AB3900;fill-rule:nonzero}
    .fil10 {fill:#BA3E00;fill-rule:nonzero}
    .fil4 {fill:#DE5916;fill-rule:nonzero}
    .fil1 {fill:white;fill-rule:nonzero}
   ]]>
  </style>
    <clipPath id="id0">
     <path d="M2654.43 2529.06l4012.23 0 0 804.28 -4012.23 0 0 -804.28z"/>
    </clipPath>
    <clipPath id="id1">
     <path d="M3603.72 2681.25l3062.94 0 0 652.08 -3079.44 0 16.5 -652.08z"/>
    </clipPath>
    <clipPath id="id2">
     <path d="M3.13 1524.93l2009.83 0 0 1808.4 -2009.83 0 0 -1808.4z"/>
    </clipPath>
    <clipPath id="id3">
     <path d="M3.13 1656.96l1519.16 0 0 1676.37 -1519.16 0 0 -1676.37z"/>
    </clipPath>
    <clipPath id="id4">
     <path d="M3.13 1780.7l1395.43 0 0 1552.63 -1395.43 0 0 -1552.63z"/>
    </clipPath>
    <clipPath id="id5">
     <path d="M6493.25 4.26l0 1544.75 -2100.52 0 0 -1544.75 2100.52 0z"/>
    </clipPath>
    <clipPath id="id6">
     <path d="M6416.02 4.26l0 1467.52 -1946.06 0 0 -1467.52 1946.06 0z"/>
    </clipPath>
    <clipPath id="id7">
     <path d="M6225.09 4.26l0 1054.35 -1296.77 0 0 -1054.35 1296.77 0z"/>
    </clipPath>
     <clipPath id="id8">
      <path d="M5576.7 410.23l982.65 0 0 982.65 -982.65 0 0 -982.65z"/>
     </clipPath>
    <clipPath id="id9">
     <path d="M4708.51 4.26l0 1606.8 -4705.39 0 0 -1606.8 4705.39 0z"/>
    </clipPath>
    <clipPath id="id10">
     <path d="M4091.41 4.26l0 1396.22 -4088.28 0 0 -1396.22 4088.28 0z"/>
    </clipPath>
    <clipPath id="id11">
     <path d="M3706.94 4.26l0 1264.6 -3703.81 0 0 -1264.6 3703.81 0z"/>
    </clipPath>
     <clipPath id="id12">
      <path d="M5828.19 733.76l832.32 0 0 688.27 -832.32 0 0 -688.27z"/>
     </clipPath>
     <clipPath id="id13">
      <path d="M1864.04 2510.74l927.94 0 0 781.29 -927.94 0 0 -781.29z"/>
     </clipPath>
     <clipPath id="id14">
      <path d="M5881.75 2165.13l488.1 0 0 602.57 -488.1 0 0 -602.57z"/>
     </clipPath>
     <clipPath id="id15">
      <path d="M6133.98 2422.03l200.69 0 0.63 281.42 -200.69 0 -0.63 -281.42z"/>
     </clipPath>
     <clipPath id="id16">
      <path d="M1025.9 1287.96l494.27 0 0 223.43 -494.27 0 0 -223.43z"/>
     </clipPath>
     <clipPath id="id17">
      <path d="M1224.64 1313.13l221.97 0 60.31 33.58 -221.97 0 -60.31 -33.58z"/>
     </clipPath>
     <clipPath id="id18">
      <path d="M1994.36 1310.62l1082.15 0 0 1082.15 -1082.15 0 0 -1082.15z"/>
     </clipPath>
    <clipPath id="id19">
     <path d="M6090.29 2682.34l576.37 0 0 650.99 -576.37 0 0 -650.99z"/>
    </clipPath>
    <clipPath id="id20">
     <path d="M6204.34 2806.81l462.32 0 0 526.52 -462.32 0 0 -526.52z"/>
    </clipPath>
     <clipPath id="id21">
      <path d="M2105.94 1422.2l858.98 0 0 858.98 -858.98 0 0 -858.98z"/>
     </clipPath>
    <clipPath id="id22">
     <path d="M3.13 1861.3l1314.82 0 0 1472.03 -1314.82 0 0 -1472.03z"/>
    </clipPath>
    <clipPath id="id23">
     <path d="M3832.48 2442.52l1205.49 0 0 890.81 -1205.49 0 0 -890.81z"/>
    </clipPath>
    <clipPath id="id24">
     <path d="M3993.83 2609.86l876.23 0 0 723.47 -876.23 0 0 -723.47z"/>
    </clipPath>
    <clipPath id="id25">
     <path d="M4043.29 2653.33l783.87 0 0 680 -783.87 0 0 -680z"/>
    </clipPath>
    <clipPath id="id26">
     <path d="M4073.36 2685.5l723.72 0 0 647.83 -723.72 0 0 -647.83z"/>
    </clipPath>
     <clipPath id="id27">
      <path d="M6277.5 1718.56l145.26 0 0 145.26 -145.26 0 0 -145.26z"/>
     </clipPath>
     <clipPath id="id28">
      <path d="M1276.55 1779.34l87.31 0 0 87.31 -87.31 0 0 -87.31z"/>
     </clipPath>
 </defs>
 <g id="Layer_x0020_1">
  <metadata id="CorelCorpID_0Corel-Layer"/>
  <rect class="fil0 str0" x="-0.01" y="-0.01" width="6666.67" height="3333.33"/>
  <g id="_1054327808">
   <path class="fil1" d="M2596.58 3329.75c356,-161.67 593.98,-386.5 823.78,-603.57 312.04,-294.79 609.03,-575.35 1165.72,-665.4 401.88,-65 921.47,-163.65 1340.43,-379.99 418.23,-215.96 736.21,-549.37 736.21,-1084.07l3.94 0 0 101.42c-37.67,479.59 -342.96,786.41 -736.55,989.64 -419.93,216.84 -940.33,315.65 -1342.8,380.75 -554.26,89.65 -850.41,369.43 -1161.57,663.38 -228.57,215.92 -465.24,439.49 -818.13,601.43l-9.42 0 -1.61 -3.58z"/>
   <g style="clip-path:url(#id0)">
    <image x="2654.43" y="2529.06" width="4012.23" height="804.28" xlinkHref="./GetLab_Background_Images/GetLab_Background_ImgID1.png"/>
   </g>
   <path class="fil2" d="M2759.34 3333.33c0,0 245.28,-127.81 616.67,-184.86 371.39,-57.04 1125,50 1783.33,-91.67 658.33,-141.67 1507.32,-422.85 1507.32,-422.85l0 699.37 -3907.32 0z"/>
   <g style="clip-path:url(#id1)">
    <image x="3587.22" y="2681.25" width="3079.44" height="652.08" xlink:href="GetLab_Background_Images\GetLab_Background_ImgID2.png"/>
   </g>
   <path class="fil3" d="M3667.8 3332.36c0,0 188.34,-98.14 473.51,-141.94 285.17,-43.8 863.82,38.39 1369.32,-70.39 492.66,-106.02 1124.26,-313.75 1156.03,-324.23l0 536.56 -2998.86 0z"/>
   <path class="fil1" d="M570.72 3329.26c90.85,-72.28 174.83,-139.69 254.63,-203.73 972.73,-780.71 1328.04,-1065.88 2713.88,-1065.88 888.02,0 1226.29,-142.85 1615.87,-307.37 249.09,-105.19 519.12,-219.22 966.43,-310.57 539.98,-110.27 539.93,-390.03 539.94,-390.83l5.19 0.08 0 34.68c-19.28,80.03 -110.57,277.93 -543.05,366.24 -446.35,91.15 -715.86,204.96 -964.48,309.95 -390.66,164.98 -729.89,308.22 -1619.9,308.22 -1382.22,0 -1736.76,284.55 -2707.37,1063.56 -79.35,63.68 -162.81,130.67 -249.56,199.71l-8.35 0 -3.24 -4.07z"/>
   <path class="fil4" d="M3.13 1394.48c502.15,-159.34 1522.06,-321.84 2449.06,-355.66 706.97,-25.79 1360.33,23.31 1689.93,205.76 363.04,200.96 544.39,407.55 713.16,599.8 305.96,348.54 570.37,649.75 1811.38,782.61l0 6.97 -0.73 6.89c-1247,-133.39 -1513.12,-436.54 -1821.07,-787.35 -168.01,-191.39 -348.56,-397.07 -709.42,-596.82 -327.14,-181.08 -977.96,-229.73 -1682.77,-204.02 -926.66,33.81 -1945.97,196.26 -2446.69,355.42l-2.87 -9.04 0 -4.56z"/>
   <g style="clip-path:url(#id2)">
    <image x="3.13" y="1524.93" width="2009.83" height="1808.4" xlink:href="GetLab_Background_Images\GetLab_Background_ImgID3.png"/>
   </g>
   <path class="fil5" d="M519.12 1925.22c603.95,0 1093.56,489.6 1093.56,1093.56 0,109.35 -16.13,214.93 -46,314.56l-1563.55 0 0 -1278.9c153.71,-82.42 329.38,-129.21 515.99,-129.21z"/>
   <path class="fil6" d="M519.12 1869.67c317.31,0 604.59,128.63 812.54,336.57 207.94,207.94 336.57,495.23 336.57,812.54 0,109.07 -15.2,214.59 -43.59,314.56l-116.06 0c31.52,-99.22 48.54,-204.9 48.54,-314.56 0,-286.64 -116.19,-546.15 -304.02,-733.98 -187.83,-187.83 -447.34,-304.02 -733.98,-304.02 -187.83,0 -364,49.89 -515.99,137.13l0 -126.13c155.16,-78.11 330.44,-122.11 515.99,-122.11z"/>
   <g style="clip-path:url(#id3)">
    <image x="3.13" y="1656.96" width="1519.16" height="1676.37" xlink:href="GetLab_Background_Images\GetLab_Background_ImgID4.png"/>
   </g>
   <path class="fil7" d="M348.29 1927.88c498.75,0 903.07,404.32 903.07,903.07 0,185.94 -56.22,358.74 -152.56,502.37l-1095.68 0 0 -1337.07c106.35,-44.03 222.91,-68.37 345.17,-68.37z"/>
   <g style="clip-path:url(#id4)">
    <image x="3.13" y="1780.7" width="1395.43" height="1552.63" xlink:href="GetLab_Background_Images\GetLab_Background_ImgID5.png"/>
   </g>
   <path class="fil0" d="M348.29 2023.06c446.19,0 807.89,361.71 807.89,807.89 0,189.89 -65.55,364.45 -175.2,502.37l-977.85 0 0 -1232.98c104.67,-49.54 221.67,-77.29 345.17,-77.29z"/>
   <g style="clip-path:url(#id5)">
    <image x="4392.73" y="4.26" width="2100.52" height="1544.75" xlink:href="GetLab_Background_Images\GetLab_Background_ImgID6.png"/>
   </g>
   <path class="fil8" d="M6081.86 4.26c105.93,136.66 169.02,308.2 169.02,494.49 0,446.19 -361.71,807.89 -807.89,807.89 -446.19,0 -807.89,-361.71 -807.89,-807.89 0,-186.29 63.09,-357.83 169.02,-494.49l1277.74 0z"/>
   <g style="clip-path:url(#id6)">
    <image x="4469.96" y="4.26" width="1946.06" height="1467.52" xlink:href="GetLab_Background_Images\GetLab_Background_ImgID7.png"/>
   </g>
   <path class="fil9" d="M5928.34 4.26c128.09,125.74 207.58,300.82 207.58,494.49 0,382.69 -310.24,692.93 -692.93,692.93 -382.69,0 -692.93,-310.24 -692.93,-692.93 0,-193.67 79.49,-368.75 207.58,-494.49l970.69 0z"/>
   <path class="fil10" d="M6004.86 4.26c116.15,131.87 186.61,304.96 186.61,494.49 0,206.68 -83.78,393.81 -219.23,529.25 -135.45,135.45 -322.58,219.23 -529.26,219.23 -206.68,0 -393.81,-83.78 -529.25,-219.23 -135.45,-135.44 -219.23,-322.57 -219.23,-529.25 0,-189.53 70.47,-362.62 186.62,-494.49l159.7 0c-16.91,13.77 -33.11,28.39 -48.52,43.8 -115.34,115.34 -186.68,274.69 -186.68,450.7 0,176.01 71.34,335.36 186.68,450.69 115.33,115.34 274.69,186.68 450.69,186.68 176.01,0 335.36,-71.34 450.7,-186.68 115.33,-115.33 186.68,-274.69 186.68,-450.69 0,-176.01 -71.34,-335.36 -186.68,-450.7 -15.41,-15.41 -31.61,-30.02 -48.52,-43.8l159.7 0z"/>
   <g style="clip-path:url(#id7)">
    <image x="4928.32" y="4.26" width="1296.77" height="1054.35" xlink:href="GetLab_Background_Images\GetLab_Background_ImgID8.png"/>
   </g>
   <path class="fil0" d="M5866.49 4.26c126.51,90.47 208.98,238.58 208.98,405.97 0,275.45 -223.31,498.76 -498.76,498.76 -275.45,0 -498.76,-223.31 -498.76,-498.76 0,-167.39 82.47,-315.5 208.98,-405.97l579.57 0z"/>
   <g>
    <g style="clip-path:url(#id8)">
     <image x="5576.7" y="410.23" width="982.65" height="982.65" xlink:href="GetLab_Background_Images\GetLab_Background_ImgID9.png"/>
    </g>
   </g>
   <circle class="fil11" cx="6068.03" cy="901.56" r="377.94"/>
   <g style="clip-path:url(#id9)">
    <image x="3.13" y="4.26" width="4705.39" height="1606.8" xlink:href="GetLab_Background_Images\GetLab_Background_ImgID10.png"/>
   </g>
   <path class="fil12" d="M3774.04 379.19c489.47,-303.59 724.91,-374.85 724.91,-374.85l-4495.04 0 0 1397.15c286.92,-939.07 3130.52,-625.58 3770.13,-1022.3z"/>
   <g style="clip-path:url(#id10)">
    <image x="3.13" y="4.26" width="4088.28" height="1396.22" xlink:href="GetLab_Background_Images\GetLab_Background_ImgID11.png"/>
   </g>
   <path class="fil13" d="M3279.35 330c425.35,-263.82 629.94,-325.74 629.94,-325.74l-3906.17 0 0 1214.11c249.33,-816.04 2720.4,-543.62 3276.22,-888.37z"/>
   <g style="clip-path:url(#id11)">
    <image x="3.13" y="4.26" width="3703.81" height="1264.6" xlink:href="GetLab_Background_Images\GetLab_Background_ImgID12.png"/>
   </g>
   <path class="fil14" d="M2971.38 299.21c376.06,-233.25 561.59,-292.26 570.25,-294.94l-3537.86 0 0 1099.64c225.85,-739.18 2464.15,-492.42 2967.61,-804.69z"/>
   <path class="fil15" d="M2112.28 3331.87c0.11,-0.81 35.75,-283.01 578.15,-367.54 1176.57,-183.37 1459.66,-472.26 1753.99,-772.63 171.42,-174.93 346.63,-353.74 701.58,-518.22 70.96,-32.89 142.75,-65.81 210.06,-96.68 808.87,-370.99 948.95,-435.24 1301.05,-1272.91l9.56 4.03 0 26.67c-348.24,823.55 -494.21,890.62 -1301.98,1261.1 -63.65,29.19 -131.58,60.35 -209.98,96.68 -351.52,162.9 -525.38,340.33 -695.48,513.91 -296.76,302.85 -582.2,594.14 -1765.63,778.57 -505.29,78.74 -557,327.43 -560.51,348.49l-10.52 0 -10.3 -1.46z"/>
   <g>
    <g style="clip-path:url(#id12)">
     <image x="5828.19" y="733.76" width="832.32" height="688.27" xlink:href="GetLab_Background_Images\GetLab_Background_ImgID13.png"/>
    </g>
   </g>
   <g>
    <path class="fil16 str1" d="M5914.68 827.19l494.65 -35.94c9.98,-0.72 18.74,6.84 19.46,16.83l25.1 345.33 -530.94 38.58 -25.09 -345.33c-0.72,-9.99 6.85,-18.74 16.83,-19.47z"/>
    <rect class="fil17 str1" transform="matrix(2.54846 -0.185193 0.130145 1.79094 5920.35 850.275)" width="190.97" height="177.09"/>
    <rect class="fil18" transform="matrix(2.05255 -0.149156 0.145616 2.00384 6063.5 883.984)" width="101.13" height="132.38"/>
    <rect class="fil19" transform="matrix(2.05255 -0.149156 0.149156 2.05255 5928.86 857.034)" width="229.28" height="11.5"/>
    <rect class="fil20" transform="matrix(2.05255 -0.149156 0.0521178 0.717198 5928.86 857.034)" width="229.28" height="11.5"/>
    <rect class="fil21" transform="matrix(0.0612554 -0.00445134 0.0521178 0.717198 6385.42 823.855)" width="229.28" height="11.5"/>
    <rect class="fil22" transform="matrix(0.0612554 -0.00445134 0.0521178 0.717198 6356.91 825.927)" width="229.28" height="11.5"/>
    <rect class="fil23" transform="matrix(0.0630881 -0.00458453 0.0521178 0.717198 6370.96 824.907)" width="229.28" height="11.5"/>
    <rect class="fil22" transform="matrix(2.05255 -0.149156 0.149156 2.05255 6110.02 888.999)" width="58.38" height="2.6"/>
    <rect class="fil22" transform="matrix(2.43031 -0.176607 0.122529 1.68613 6099.82 899.595)" width="58.38" height="2.6"/>
    <rect class="fil24" transform="matrix(2.05255 -0.149156 0.618286 8.5083 6117.73 995.113)" width="58.38" height="2.6"/>
    <rect class="fil19" transform="matrix(1.54536 -0.112299 0.178491 2.45623 6136.31 1021.56)" width="58.38" height="2.6"/>
    <rect class="fil24" transform="matrix(1.16359 -0.0845565 0.178491 2.45623 6197.47 1074.43)" width="58.38" height="2.6"/>
    <rect class="fil24" transform="matrix(1.16359 -0.0845565 0.178491 2.45623 6198.39 1085.55)" width="58.38" height="2.6"/>
    <polygon class="fil25" points="5918.09,1197.26 5853.17,1316.7 6526.66,1267.76 6459.25,1158.19 "/>
    <polygon class="fil16" points="5926.23,1206.7 5899.21,1262.76 6480.87,1220.49 6450.24,1167.87 "/>
    <polygon class="fil16" points="6078.56,1261.74 6066.79,1286.16 6320.23,1267.74 6306.88,1244.82 "/>
   </g>
   <g>
    <g style="clip-path:url(#id13)">
     <image x="1864.04" y="2510.74" width="927.94" height="781.29" xlink:href="GetLab_Background_Images\GetLab_Background_ImgID14.png"/>
    </g>
   </g>
   <g>
    <path class="fil26 str2" d="M2078.24 2587.27l549.1 52.6c11.08,1.06 19.28,10.99 18.22,22.08l-36.72 383.35 -589.4 -56.46 36.72 -383.35c1.06,-11.09 11,-19.28 22.08,-18.22z"/>
    <rect class="fil17 str2" transform="matrix(2.79548 0.267784 -0.187713 1.95959 2082.52 2616.28)" width="190.97" height="177.09"/>
    <rect class="fil18" transform="matrix(2.27854 0.218265 -0.213085 2.22446 2230.86 2677.23)" width="101.13" height="132.38"/>
    <rect class="fil19" transform="matrix(2.27854 0.218265 -0.218265 2.27854 2088.22 2622.63)" width="229.28" height="11.5"/>
    <rect class="fil20" transform="matrix(2.27854 0.218265 -0.0762657 0.796162 2088.22 2622.63)" width="229.28" height="11.5"/>
    <rect class="fil21" transform="matrix(0.0679997 0.0065138 -0.0762657 0.796162 2595.06 2671.19)" width="229.28" height="11.5"/>
    <rect class="fil22" transform="matrix(0.0679997 0.0065138 -0.0762657 0.796162 2563.41 2668.15)" width="229.28" height="11.5"/>
    <rect class="fil23" transform="matrix(0.0700342 0.00670869 -0.0762657 0.796162 2579 2669.65)" width="229.28" height="11.5"/>
    <rect class="fil22" transform="matrix(2.27854 0.218265 -0.218265 2.27854 2280.94 2691.39)" width="58.38" height="2.6"/>
    <rect class="fil22" transform="matrix(2.69789 0.258435 -0.179301 1.87178 2267.78 2701.11)" width="58.38" height="2.6"/>
    <rect class="fil24" transform="matrix(2.27854 0.218265 -0.904759 9.44507 2269.66 2809.19)" width="58.38" height="2.6"/>
    <rect class="fil19" transform="matrix(1.71551 0.164332 -0.261191 2.72666 2285.11 2841.64)" width="58.38" height="2.6"/>
    <rect class="fil24" transform="matrix(1.2917 0.123734 -0.261191 2.72666 2342.34 2911)" width="58.38" height="2.6"/>
    <rect class="fil24" transform="matrix(1.2917 0.123734 -0.261191 2.72666 2341.28 2923.36)" width="58.38" height="2.6"/>
    <polygon class="fil27" points="2013.34,2993.83 1919.71,3112.61 2667.36,3184.23 2613.57,3050.9 "/>
    <polygon class="fil16" points="2020.3,3005.58 1980.24,3062.03 2625.94,3123.89 2602.14,3060.48 "/>
    <polygon class="fil16" points="2177.1,3094.27 2159.65,3118.87 2440.99,3145.82 2430.62,3118.2 "/>
   </g>
   <g>
    <g style="clip-path:url(#id14)">
     <image x="5881.75" y="2165.13" width="488.1" height="602.57" xlink:href="GetLab_Background_Images\GetLab_Background_ImgID15.png"/>
    </g>
   </g>
   <g>
    <rect class="fil18" transform="matrix(0.9955 0.0947608 -0.0947608 0.9955 5948.58 2197.79)" width="333.33" height="460.42"/>
    <rect class="fil22" transform="matrix(0.9955 0.0947608 -0.0947608 0.9955 5971.2 2224.01)" width="215.63" height="9.37"/>
    <rect class="fil24" transform="matrix(1.28407 0.122229 -0.0947608 0.9955 5968.57 2251.66)" width="215.63" height="9.37"/>
    <rect class="fil24" transform="matrix(1.23597 0.117651 -0.0947608 0.9955 5967.25 2265.49)" width="215.63" height="9.37"/>
    <rect class="fil24" transform="matrix(1.28407 0.122229 -0.0947608 0.9955 5968.57 2251.66)" width="215.63" height="9.37"/>
    <rect class="fil24" transform="matrix(1.25762 0.119712 -0.0947608 0.9955 5965.93 2279.32)" width="215.63" height="9.37"/>
    <rect class="fil24" transform="matrix(1.22636 0.116736 -0.0947608 0.9955 5964.62 2293.14)" width="215.63" height="9.37"/>
    <rect class="fil24" transform="matrix(1.30332 0.124062 -0.0947608 0.9955 5961.99 2320.8)" width="215.63" height="9.37"/>
    <rect class="fil24" transform="matrix(1.22876 0.116964 -0.0947608 0.9955 5960.67 2334.63)" width="215.63" height="9.37"/>
    <rect class="fil24" transform="matrix(1.22876 0.116964 -0.0947608 0.9955 5959.35 2348.45)" width="215.63" height="9.37"/>
    <rect class="fil24" transform="matrix(1.28167 0.122001 -0.0947608 0.9955 5955.4 2389.93)" width="215.63" height="9.37"/>
    <rect class="fil24" transform="matrix(1.19509 0.11376 -0.0947608 0.9955 5954.09 2403.76)" width="215.63" height="9.37"/>
    <rect class="fil24" transform="matrix(0.928193 0.0883539 -0.0947608 0.9955 5952.77 2417.59)" width="215.63" height="9.37"/>
    <rect class="fil24" transform="matrix(0.928193 0.0883539 -0.0947608 0.9955 5936.98 2583.52)" width="215.63" height="9.37"/>
    <rect class="fil24" transform="matrix(0.865496 0.0823858 -0.0947608 0.9955 5935.66 2597.34)" width="215.63" height="9.37"/>
    <rect class="fil24" transform="matrix(0.672204 0.0639865 -0.0947608 0.9955 5934.35 2611.17)" width="215.63" height="9.37"/>
    <rect class="fil22" transform="matrix(0.90171 0.0858331 -0.0947608 0.9955 5939.61 2555.86)" width="215.63" height="9.37"/>
   </g>
   <g>
    <g style="clip-path:url(#id15)">
     <image x="6133.98" y="2422.03" width="201.31" height="281.42" xlink:href="GetLab_Background_Images\GetLab_Background_ImgID16.png"/>
    </g>
   </g>
   <rect class="fil16" transform="matrix(0.9955 0.0947608 -0.0947608 0.9955 6178.05 2446.16)" width="135.42" height="222.92" rx="8.59" ry="8.59"/>
   <rect class="fil28" transform="matrix(0.880773 0.08384 -0.0790066 0.829996 6184.6 2459.69)" width="135.42" height="222.92"/>
   <circle class="fil25" transform="matrix(0.9955 0.0947608 -0.0947608 0.9955 6225.03 2661.48)" r="5.99"/>
   <circle class="fil26" transform="matrix(0.508549 0.0484084 -0.0484084 0.508549 6289.51 2463.05)" r="5.99"/>
   <g>
    <rect class="fil18" transform="matrix(0.279346 0.0265907 -0.0265907 0.279346 6194.99 2481.76)" width="333.33" height="460.42"/>
    <rect class="fil22" transform="matrix(0.279346 0.0265907 -0.0265907 0.279346 6201.33 2489.11)" width="215.63" height="9.37"/>
    <rect class="fil24" transform="matrix(0.36032 0.0342986 -0.0265907 0.279346 6200.6 2496.87)" width="215.63" height="9.37"/>
    <rect class="fil24" transform="matrix(0.346825 0.0330139 -0.0265907 0.279346 6200.23 2500.75)" width="215.63" height="9.37"/>
    <rect class="fil24" transform="matrix(0.36032 0.0342986 -0.0265907 0.279346 6200.6 2496.87)" width="215.63" height="9.37"/>
    <rect class="fil24" transform="matrix(0.352899 0.0335922 -0.0265907 0.279346 6199.86 2504.63)" width="215.63" height="9.37"/>
    <rect class="fil24" transform="matrix(0.344126 0.0327571 -0.0265907 0.279346 6199.49 2508.51)" width="215.63" height="9.37"/>
    <rect class="fil24" transform="matrix(0.365722 0.0348127 -0.0265907 0.279346 6198.75 2516.27)" width="215.63" height="9.37"/>
    <rect class="fil24" transform="matrix(0.3448 0.0328212 -0.0265907 0.279346 6198.38 2520.15)" width="215.63" height="9.37"/>
    <rect class="fil24" transform="matrix(0.3448 0.0328212 -0.0265907 0.279346 6198.01 2524.03)" width="215.63" height="9.37"/>
    <rect class="fil24" transform="matrix(0.359647 0.0342345 -0.0265907 0.279346 6196.9 2535.67)" width="215.63" height="9.37"/>
    <rect class="fil24" transform="matrix(0.335354 0.031922 -0.0265907 0.279346 6196.53 2539.55)" width="215.63" height="9.37"/>
    <rect class="fil24" transform="matrix(0.260459 0.0247929 -0.0265907 0.279346 6196.16 2543.43)" width="215.63" height="9.37"/>
    <rect class="fil24" transform="matrix(0.260459 0.0247929 -0.0265907 0.279346 6191.73 2590)" width="215.63" height="9.37"/>
    <rect class="fil24" transform="matrix(0.242865 0.0231182 -0.0265907 0.279346 6191.36 2593.88)" width="215.63" height="9.37"/>
    <rect class="fil24" transform="matrix(0.188626 0.0179552 -0.0265907 0.279346 6190.99 2597.76)" width="215.63" height="9.37"/>
    <rect class="fil22" transform="matrix(0.253028 0.0240855 -0.0265907 0.279346 6192.47 2582.23)" width="215.63" height="9.37"/>
   </g>
   <g>
    <rect class="fil16" transform="matrix(0.999496 0.0317394 -0.0317394 0.999496 1205.46 1006.03)" width="135.42" height="222.92" rx="8.59" ry="8.59"/>
    <rect class="fil28" transform="matrix(0.884308 0.0280815 -0.0264626 0.833328 1212.85 1019.12)" width="135.42" height="222.92"/>
    <circle class="fil25" transform="matrix(0.999496 0.0317394 -0.0317394 0.999496 1265.94 1217.95)" r="5.99"/>
    <circle class="fil26" transform="matrix(0.510591 0.016214 -0.016214 0.510591 1317.76 1015.85)" r="5.99"/>
    <g>
     <rect class="fil18" transform="matrix(0.280467 0.00890634 -0.00890634 0.280467 1224.61 1040.49)" width="333.33" height="460.42"/>
     <rect class="fil22" transform="matrix(0.280467 0.00890634 -0.00890634 0.280467 1231.41 1047.43)" width="215.63" height="9.37"/>
     <rect class="fil24" transform="matrix(0.361767 0.011488 -0.00890634 0.280467 1231.16 1055.22)" width="215.63" height="9.37"/>
     <rect class="fil24" transform="matrix(0.348217 0.0110577 -0.00890634 0.280467 1231.03 1059.11)" width="215.63" height="9.37"/>
     <rect class="fil24" transform="matrix(0.361767 0.011488 -0.00890634 0.280467 1231.16 1055.22)" width="215.63" height="9.37"/>
     <rect class="fil24" transform="matrix(0.354316 0.0112514 -0.00890634 0.280467 1230.91 1063.01)" width="215.63" height="9.37"/>
     <rect class="fil24" transform="matrix(0.345508 0.0109717 -0.00890634 0.280467 1230.79 1066.91)" width="215.63" height="9.37"/>
     <rect class="fil24" transform="matrix(0.36719 0.0116602 -0.00890634 0.280467 1230.54 1074.7)" width="215.63" height="9.37"/>
     <rect class="fil24" transform="matrix(0.346184 0.0109932 -0.00890634 0.280467 1230.42 1078.59)" width="215.63" height="9.37"/>
     <rect class="fil24" transform="matrix(0.346184 0.0109932 -0.00890634 0.280467 1230.29 1082.49)" width="215.63" height="9.37"/>
     <rect class="fil24" transform="matrix(0.361091 0.0114666 -0.00890634 0.280467 1229.92 1094.18)" width="215.63" height="9.37"/>
     <rect class="fil24" transform="matrix(0.3367 0.010692 -0.00890634 0.280467 1229.8 1098.07)" width="215.63" height="9.37"/>
     <rect class="fil24" transform="matrix(0.261504 0.00830417 -0.00890634 0.280467 1229.67 1101.97)" width="215.63" height="9.37"/>
     <rect class="fil24" transform="matrix(0.261504 0.00830417 -0.00890634 0.280467 1228.19 1148.71)" width="215.63" height="9.37"/>
     <rect class="fil24" transform="matrix(0.24384 0.00774324 -0.00890634 0.280467 1228.07 1152.61)" width="215.63" height="9.37"/>
     <rect class="fil24" transform="matrix(0.189383 0.00601393 -0.00890634 0.280467 1227.94 1156.51)" width="215.63" height="9.37"/>
     <rect class="fil22" transform="matrix(0.254043 0.00806723 -0.00890634 0.280467 1228.44 1140.92)" width="215.63" height="9.37"/>
    </g>
   </g>
   <g>
    <g style="clip-path:url(#id16)">
     <image x="1025.9" y="1287.96" width="494.27" height="223.43" xlink:href="GetLab_Background_Images\GetLab_Background_ImgID17.png"/>
    </g>
   </g>
   <polygon class="fil18" points="1477.99,1287.21 1207.16,1287.21 1035.28,1459.09 1338.41,1459.09 "/>
   <line class="fil29 str3" x1="1214.03" y1="1302.65" x2="1358.3" y2= "1302.65" />
   <line class="fil29 str4" x1="1192.68" y1="1319.84" x2="1374.97" y2= "1319.84" />
   <line class="fil29 str4" x1="1177.57" y1="1342.24" x2="1307.26" y2= "1342.24" />
   <g>
    <g style="clip-path:url(#id17)">
     <image x="1224.64" y="1313.13" width="282.28" height="33.58" xlink:href="GetLab_Background_Images\GetLab_Background_ImgID18.png"/>
    </g>
   </g>
   <g>
    <path class="fil30" d="M1431.09 1104.17c-39.97,70.52 -79.95,141.05 -119.92,211.57 5.76,6.01 11.16,8.31 18.02,10.21l1.69 -2.98 118.34 -208.8 -18.13 -10z"/>
    <path class="fil23" d="M1307.67 1344c7.18,-6.02 14.34,-12.04 21.52,-18.06 -6.65,-1.75 -11.86,-4.44 -18.02,-10.21l-3.5 28.27z"/>
    <path class="fil31" d="M1332.88 1319.43c0,0 -9.2,-1.56 -18.02,-10.21 6.15,-10.85 -37.53,66.21 25,-44.12 5.97,5.22 11.49,8.12 18.02,10.21l-25.01 44.12z"/>
    <path class="fil32" d="M1428.94 1153.09c0,0 -13.15,-4.24 -20.97,-11.73 12.37,-21.38 24.53,-42.97 36.82,-64.42 7.71,3.11 14.33,7.02 20.8,11.79l-36.65 64.36z"/>
    <path class="fil33" d="M1461.96 1095.11c0,0 -0.58,1.04 -1.01,1.77 40.48,56.22 -26.71,49.5 -28.33,49.78 -1.19,2.08 -1.39,2.43 -1.39,2.43 0,0 76.28,6.93 30.74,-53.99z"/>
    <path class="fil16" d="M1307.67 1343.99c1.63,-1.37 3.26,-2.73 4.88,-4.1 -1.51,-0.4 -2.69,-1.01 -4.09,-2.31l-0.79 6.41z"/>
   </g>
   <g>
    <g style="clip-path:url(#id18)">
     <image x="1994.36" y="1310.62" width="1082.15" height="1082.15" xlink:href="GetLab_Background_Images\GetLab_Background_ImgID19.png"/>
    </g>
   </g>
   <circle class="fil9" cx="2535.43" cy="1851.69" r="416.21"/>
   <circle class="fil34 str5" cx="2535.43" cy="1851.69" r="367.08"/>
   <g style="clip-path:url(#id19)">
    <image x="6090.29" y="2682.34" width="576.37" height="650.99" xlink:href="GetLab_Background_Images\GetLab_Background_ImgID20.png"/>
   </g>
   <path class="fil9" d="M6582.71 2795.97c28.85,0 56.94,3.24 83.95,9.35l0 528 -428.02 0c-22.27,-48.24 -34.72,-101.95 -34.72,-158.57 0,-209.2 169.59,-378.79 378.79,-378.79z"/>
   <path class="fil34" d="M6586.88 2857.36c27.5,0 54.21,3.35 79.78,9.61l0 466.36 -382.28 0c-20.24,-43.07 -31.57,-91.16 -31.57,-141.9 0,-184.5 149.57,-334.07 334.07,-334.07z"/>
   <path class="fil35" d="M6586.88 2850.41c27.47,0 54.19,3.26 79.78,9.39l0 14.3c-25.54,-6.4 -52.26,-9.8 -79.78,-9.8 -90.33,0 -172.12,36.62 -231.31,95.81 -59.19,59.2 -95.81,140.98 -95.81,231.31 0,50.84 11.6,98.98 32.3,141.9l-15.34 0c-19.8,-43.21 -30.85,-91.27 -30.85,-141.9 0,-94.16 38.18,-179.43 99.88,-241.13 61.71,-61.7 146.97,-99.88 241.13,-99.88z"/>
   <g style="clip-path:url(#id20)">
    <image x="6204.34" y="2806.81" width="462.32" height="526.52" xlink:href="GetLab_Background_Images\GetLab_Background_ImgID21.png"/>
   </g>
   <path class="fil0" d="M6595.21 2897.01c24.62,0 48.55,2.98 71.45,8.57l0 427.76 -339.84 0c-20.65,-40.76 -32.28,-86.84 -32.28,-135.65 0,-166.05 134.62,-300.67 300.67,-300.67z"/>
   <g>
    <g style="clip-path:url(#id21)">
     <image x="2105.94" y="1422.2" width="858.98" height="858.98" xlink:href="GetLab_Background_Images\GetLab_Background_ImgID22.png"/>
    </g>
   </g>
   <circle class="fil0" cx="2535.43" cy="1851.69" r="330.38"/>
   <g style="clip-path:url(#id22)">
    <image x="3.13" y="1861.3" width="1314.82" height="1472.03" xlink:href="GetLab_Background_Images\GetLab_Background_ImgID23.png"/>
   </g>
   <path class="fil0" d="M348.29 2085.07c411.94,0 745.89,333.95 745.89,745.89 0,193.52 -73.7,369.81 -194.56,502.37l-896.49 0 0 -1163.71c103.22,-53.98 220.61,-84.55 345.17,-84.55z"/>
   <path class="fil9" d="M6599.38 2994.74c23.65,0 46.31,4.22 67.28,11.95l0 326.64 -198.19 0c-39.13,-35.6 -63.7,-86.92 -63.7,-143.99 0,-107.47 87.13,-194.6 194.6,-194.6z"/>
   <path class="fil0" d="M6599.38 3023.97c23.88,0 46.62,4.88 67.28,13.7l0 295.67 -169.69 0c-42.01,-31.29 -69.22,-81.33 -69.22,-137.74 0,-94.79 76.84,-171.63 171.63,-171.63z"/>
   <path class="fil35" d="M6599.38 3017.02c23.8,0 46.52,4.66 67.28,13.11l0 15.11c-20.54,-9.2 -43.31,-14.33 -67.28,-14.33 -45.48,0 -86.65,18.44 -116.45,48.23 -29.8,29.8 -48.23,70.97 -48.23,116.45 0,45.48 18.44,86.65 48.23,116.45 7.95,7.95 16.71,15.09 26.15,21.29l-23.35 0c-4.39,-3.63 -8.59,-7.45 -12.61,-11.47 -32.31,-32.31 -52.3,-76.96 -52.3,-126.27 0,-49.31 19.99,-93.95 52.3,-126.27 32.31,-32.31 76.96,-52.3 126.27,-52.3z"/>
   <circle class="fil11" cx="3874.38" cy="3091.43" r="126.98"/>
   <circle class="fil11" cx="4632.71" cy="2766.43" r="341.67"/>
   <g style="clip-path:url(#id23)">
    <image x="3832.48" y="2442.52" width="1205.49" height="890.81" xlink:href="GetLab_Background_Images\GetLab_Background_ImgID24.png"/>
   </g>
   <path class="fil5" d="M4435.22 2637.17c225.39,0 408.09,182.71 408.09,408.09 0,112.44 -45.48,214.25 -119.04,288.06l-578.12 0c-73.56,-73.81 -119.04,-175.62 -119.04,-288.06 0,-225.39 182.71,-408.09 408.09,-408.09z"/>
   <path class="fil6" d="M4435.22 2581.62c128.03,0 243.94,51.9 327.85,135.8 83.91,83.91 135.8,199.82 135.8,327.85 0,108.86 -37.52,208.95 -100.33,288.06l-160.03 0c16.43,-11.61 31.82,-24.59 46,-38.78 63.79,-63.79 103.25,-151.93 103.25,-249.29 0,-97.35 -39.46,-185.5 -103.25,-249.29 -63.79,-63.79 -151.93,-103.25 -249.29,-103.25 -97.35,0 -185.5,39.46 -249.29,103.25 -63.79,63.79 -103.25,151.93 -103.25,249.29 0,97.35 39.46,185.5 103.25,249.29 14.19,14.19 29.58,27.16 46,38.78l-160.03 0c-62.81,-79.11 -100.33,-179.2 -100.33,-288.06 0,-128.03 51.9,-243.94 135.8,-327.85 83.91,-83.91 199.82,-135.8 327.85,-135.8z"/>
   <g style="clip-path:url(#id24)">
    <image x="3993.83" y="2609.86" width="876.23" height="723.47" xlink:href="GetLab_Background_Images\GetLab_Background_ImgID25.png"/>
   </g>
   <path class="fil7" d="M4431.94 2710.96c186.13,0 337.01,150.89 337.01,337.01 0,120.21 -62.95,225.7 -157.67,285.35l-358.69 0c-94.72,-59.66 -157.67,-165.15 -157.67,-285.35 0,-186.13 150.89,-337.01 337.01,-337.01z"/>
   <g style="clip-path:url(#id25)">
    <image x="4043.29" y="2653.33" width="783.87" height="680" xlink:href="GetLab_Background_Images\GetLab_Background_ImgID26.png"/>
   </g>
   <path class="fil0" d="M4435.22 2743.78c166.51,0 301.49,134.98 301.49,301.49 0,135.44 -89.32,250.02 -212.26,288.06l-178.46 0c-122.94,-38.04 -212.26,-152.62 -212.26,-288.06 0,-166.51 134.98,-301.49 301.49,-301.49z"/>
   <g style="clip-path:url(#id26)">
    <image x="4073.36" y="2685.5" width="723.72" height="647.83" xlink:href="GetLab_Background_Images\GetLab_Background_ImgID27.png"/>
   </g>
   <circle class="fil0" cx="4435.22" cy="3047.35" r="278.35"/>
   <circle class="fil34 str5" cx="6350.13" cy="1791.19" r="120.83"/>
   <circle class="fil0" cx="6350.13" cy="1791.19" r="108.75"/>
   <circle class="fil9" cx="6350.13" cy="1791.19" r="70.39"/>
   <circle class="fil34 str5" cx="6350.13" cy="1791.19" r="62.08"/>
   <g>
    <g style="clip-path:url(#id27)">
     <image x="6277.5" y="1718.56" width="145.26" height="145.26" xlink:href="GetLab_Background_Images\GetLab_Background_ImgID28.png"/>
    </g>
   </g>
   <circle class="fil0" cx="6350.13" cy="1791.19" r="55.87"/>
   <circle class="fil0" cx="6350.13" cy="1791.19" r="55.87"/>
   <circle class="fil34 str5" cx="4336.87" cy="378.92" r="72.63"/>
   <circle class="fil0" cx="4336.87" cy="378.92" r="65.37"/>
   <circle class="fil9" cx="4336.87" cy="378.92" r="42.31"/>
   <circle class="fil34 str5" cx="4336.87" cy="378.92" r="37.31"/>
   <circle class="fil34 str5" cx="1320.21" cy="1823" r="72.63"/>
   <circle class="fil0" cx="1320.21" cy="1823" r="65.37"/>
   <circle class="fil9" cx="1320.21" cy="1823" r="42.31"/>
   <circle class="fil34 str5" cx="1320.21" cy="1823" r="37.31"/>
   <g>
    <g style="clip-path:url(#id28)">
     <image x="1276.55" y="1779.34" width="87.31" height="87.31" xlink:href="GetLab_Background_Images\GetLab_Background_ImgID29.png"/>
    </g>
   </g>
   <circle class="fil0" cx="1320.21" cy="1823" r="33.58"/>
   <circle class="fil0" cx="1320.21" cy="1823" r="33.58"/>
   <circle class="fil0" cx="1320.21" cy="1823" r="33.58"/>
   <circle class="fil0" cx="1320.21" cy="1823" r="33.58"/>
   <circle class="fil11" cx="6508.87" cy="1652.09" r="45.83"/>
   <circle class="fil11" cx="6547.47" cy="2041.8" r="87.5"/>
   <circle class="fil11" cx="1115.12" cy="1831.28" r="45.83"/>
   <circle class="fil11" cx="1506.79" cy="2068.78" r="91.67"/>
   <circle class="fil11" cx="4556.06" cy="200.02" r="45.83"/>
   <circle class="fil11" cx="4469.96" cy="679.18" r="111.82"/>
  </g>
 </g>
</svg>
